# xmcd
#
# Track frame offsets:
#	150
#	17300
#	34655
#	62365
#
# Disc length: 1197 seconds
# Revision: 0
# Processed by: cddbd v1.5.2PL0 Copyright (c) Steve Scherf et al.
# Submitted via: dBpowerAMP V12.0
#
DISCID=1f04ab04
DTITLE=DaYeene - And It Hurts
DYEAR=1999
DGENRE=House
TTITLE0=And It Hurts [Original Edit]
TTITLE1=And It Hurts [StoneBridge Radio Edit]
TTITLE2=And It Hurts [Olav Basoski's Samplitude Remix]
TTITLE3=And It Hurts [StoneBridge Peak Hour Mix Edit]
EXTD=
EXTT0=
EXTT1=
EXTT2=
EXTT3=
PLAYORDER=
